<svg width="11" height="17" viewBox="0 0 11 17" fill="none" xmlns="http://www.w3.org/2000/svg">
<path d="M0.670759 1.00781C0.559151 1.11942 0.503348 1.24777 0.503348 1.39286C0.503348 1.53795 0.559151 1.66629 0.670759 1.7779L7.25 8.35714L0.670759 14.9364C0.559151 15.048 0.503348 15.1763 0.503348 15.3214C0.503348 15.4665 0.559151 15.5949 0.670759 15.7065L1.50781 16.5435C1.61942 16.6551 1.74777 16.7109 1.89286 16.7109C2.03795 16.7109 2.16629 16.6551 2.2779 16.5435L10.0792 8.74219C10.1908 8.63058 10.2467 8.50223 10.2467 8.35714C10.2467 8.21205 10.1908 8.0837 10.0792 7.9721L2.2779 0.170758C2.16629 0.0591503 2.03795 0.00334668 1.89286 0.00334668C1.74777 0.00334668 1.61942 0.0591503 1.50781 0.170758L0.670759 1.00781Z" fill="black"/>
</svg>
