<svg width="11" height="17" viewBox="0 0 11 17" fill="none" xmlns="http://www.w3.org/2000/svg">
<path d="M10.3292 1.00781C10.4408 1.11942 10.4967 1.24777 10.4967 1.39286C10.4967 1.53795 10.4408 1.66629 10.3292 1.7779L3.75 8.35714L10.3292 14.9364C10.4408 15.048 10.4967 15.1763 10.4967 15.3214C10.4967 15.4665 10.4408 15.5949 10.3292 15.7065L9.49219 16.5435C9.38058 16.6551 9.25223 16.7109 9.10714 16.7109C8.96205 16.7109 8.83371 16.6551 8.7221 16.5435L0.920759 8.74219C0.809152 8.63058 0.753348 8.50223 0.753348 8.35714C0.753348 8.21205 0.809152 8.0837 0.920759 7.9721L8.7221 0.170758C8.83371 0.0591503 8.96205 0.00334668 9.10714 0.00334668C9.25223 0.00334668 9.38058 0.0591503 9.49219 0.170758L10.3292 1.00781Z" fill="black"/>
</svg>
