<svg width="51" height="32" viewBox="0 0 51 32" fill="none" xmlns="http://www.w3.org/2000/svg">
<g clip-path="url(#clip0_449:163)">
<path fill-rule="evenodd" clip-rule="evenodd" d="M1.24513 22.0743L17.1411 22.1669C25.5125 22.1879 29.8994 14.371 46.1358 15.6128C51.2075 16.0001 52.0003 20.3105 50.0205 21.6786C48.5347 22.7057 47.1443 21.5691 45.6917 21.0851C44.4439 20.6758 43.1522 20.42 41.8443 20.3232C37.1917 19.9485 33.5725 21.0009 29.6587 22.3605C24.0723 24.2968 22.3748 25.4418 21.6609 26.7425C16.9668 35.2666 1.16213 33.225 1.24513 22.0743ZM12.3972 10.8393H18.2078C18.6843 10.8373 19.1423 11.0264 19.4819 11.3655V11.3655C19.8127 11.7011 20.0017 12.1539 20.009 12.6283V18.4458C20.009 18.9303 19.8193 19.3949 19.4815 19.7376C19.1437 20.0802 18.6855 20.2726 18.2078 20.2726H12.3972C11.9209 20.2713 11.4645 20.0792 11.1272 19.738C10.7909 19.396 10.6014 18.933 10.6001 18.45V12.6662C10.5986 12.4252 10.644 12.1862 10.7337 11.963C10.8235 11.7398 10.9558 11.5367 11.1231 11.3655C11.4613 11.0259 11.9171 10.834 12.3931 10.8309L12.3972 10.8393ZM18.0252 12.8599H12.5882V18.2563H18.0252V12.8599ZM1.80129 10.8393H7.61183C8.08838 10.8373 8.54639 11.0264 8.886 11.3655V11.3655C9.21672 11.7011 9.40575 12.1539 9.4131 12.6283V18.4458C9.4131 18.9303 9.22333 19.3949 8.88552 19.7376C8.54772 20.0802 8.08956 20.2726 7.61183 20.2726H1.80129C1.32499 20.2713 0.868504 20.0792 0.531266 19.738V19.738C0.363224 19.5696 0.229758 19.369 0.138575 19.1479C0.0473917 18.9268 0.000298699 18.6896 1.56969e-05 18.45V12.6662C-0.000976534 12.4249 0.0450812 12.1857 0.13554 11.9625C0.225999 11.7393 0.359075 11.5364 0.527115 11.3655V11.3655C0.865362 11.0259 1.3212 10.834 1.79713 10.8309L1.80129 10.8393ZM7.42921 12.8599H1.9922V18.2563H7.42921V12.8599ZM7.21339 7.7601e-05H13.0239C13.5002 0.00139241 13.9567 0.193544 14.294 0.534674V0.534674C14.6297 0.875415 14.8191 1.33685 14.8211 1.81855V7.6065C14.8211 8.09102 14.6313 8.55569 14.2935 8.8983C13.9557 9.24091 13.4975 9.43339 13.0198 9.43339H7.20924C6.73295 9.43207 6.27646 9.23992 5.93922 8.89879V8.89879C5.76917 8.7303 5.6336 8.52941 5.5403 8.30764C5.447 8.08587 5.3978 7.8476 5.39552 7.6065V1.82697C5.39551 1.58563 5.44265 1.34669 5.53421 1.12393C5.62577 0.901182 5.75993 0.699035 5.92896 0.529171C6.09798 0.359307 6.29852 0.225092 6.51898 0.134279C6.73944 0.0434652 6.97545 -0.00214667 7.21339 7.7601e-05V7.7601e-05ZM12.8413 2.0206H7.40431V7.41707H12.8413V2.0206V2.0206Z" fill="black"/>
</g>
<defs>
<clipPath id="clip0_449:163">
<rect width="51" height="32" fill="white"/>
</clipPath>
</defs>
</svg>
