<svg width="53" height="60" viewBox="0 0 53 60" fill="none" xmlns="http://www.w3.org/2000/svg">
<g clip-path="url(#clip0_449:154)">
<path d="M34.4623 6.08868C37.6655 7.20554 40.0714 9.50106 41.7945 12.5239C43.9488 16.2917 45.0056 21.25 45.1187 26.379C45.2389 31.4291 44.4744 36.4634 42.8599 41.2526C41.1182 46.2478 38.4013 50.347 34.8986 52.3666C34.4355 52.6361 33.9871 52.8633 33.5482 53.0636C29.0305 55.1257 23.6769 55.1294 18.8911 53.6029C14.1053 52.0765 9.8401 49.0077 7.52238 44.9329C7.29624 44.5351 7.09076 44.1273 6.89829 43.7068C4.87624 39.2395 5.28369 33.6024 7.21966 28.05C8.86132 23.4734 11.2761 19.2129 14.3581 15.4554C17.4461 11.6708 21.0657 8.60175 24.7416 6.92271C28.0108 5.42511 31.3472 5.00251 34.4738 6.09269L34.4623 6.08868ZM38.9564 13.8313C37.6271 11.4888 35.8109 9.71784 33.4803 8.90521C31.2798 8.13795 28.8048 8.4903 26.2988 9.6334C23.0386 11.1298 19.785 13.8999 16.9638 17.3379C14.087 20.8561 11.8354 24.8442 10.308 29.1268C8.58908 34.0567 8.16963 38.9527 9.87313 42.6841C10.0188 43.0049 10.182 43.3247 10.3627 43.6434C12.2544 46.9707 15.7865 49.4951 19.7888 50.7699C23.791 52.0447 28.2596 52.0557 31.991 50.3529C32.3848 50.1713 32.7505 49.9842 33.0918 49.793C35.9567 48.1501 38.24 44.5806 39.7727 40.1848C41.2857 35.7053 42.0037 30.9962 41.894 26.2718C41.8062 21.5997 40.8559 17.1483 38.9706 13.8276L38.9564 13.8313Z" fill="black"/>
<path d="M30.0002 15C24.3336 17.6666 13.8003 27.3998 17.0002 45" stroke="black" stroke-width="4"/>
</g>
<defs>
<clipPath id="clip0_449:154">
<rect width="38" height="50" fill="white" transform="translate(17) rotate(19.2224)"/>
</clipPath>
</defs>
</svg>
