<svg width="49" height="49" viewBox="0 0 49 49" fill="none" xmlns="http://www.w3.org/2000/svg">
<g clip-path="url(#clip0_449:157)">
<path d="M29.994 26.0178C29.5078 25.5233 29.0015 25.001 28.5112 24.4587C28.021 23.9164 27.5067 23.3542 27.0244 22.7801C26.7472 22.4451 26.4739 22.1062 26.2208 21.7633C25.9917 21.4643 25.7707 21.1572 25.5618 20.8462L25.6743 20.6668L25.8471 20.3757L26.0199 20.0647L26.1766 19.7696C26.6209 18.9008 26.9594 17.9826 27.1852 17.0344C27.4102 16.1332 27.5549 15.2241 27.6995 14.3031C27.8437 13.2845 28.0422 12.2743 28.2943 11.2767C28.582 10.1791 29.0143 9.12404 29.5801 8.13868C30.1933 7.08579 30.9506 6.12232 31.8304 5.27579C32.7016 4.4368 33.6878 3.72402 34.7598 3.15853C35.7569 2.63131 36.8306 2.26137 37.9424 2.06202C38.9542 1.88926 39.9894 1.90278 40.9963 2.1019C41.7551 2.25749 42.4794 2.54792 43.1341 2.95917C43.8016 3.38837 44.3901 3.92781 44.874 4.55409C45.4266 5.26445 45.8732 6.05003 46.2001 6.88666C46.5635 7.81921 46.8157 8.79074 46.9515 9.78145C47.1202 10.9361 47.135 12.1078 46.9957 13.2664C46.8504 14.3284 46.5626 15.3663 46.1398 16.3525C45.7114 17.3687 45.1725 18.3354 44.5325 19.2353C43.8391 20.2066 43.0749 21.1262 42.246 21.9866L41.9286 22.3215C41.2254 23.0592 40.5342 23.7809 39.9194 24.5744C39.2545 25.3988 38.6969 26.303 38.2598 27.2658C37.3739 29.334 36.7582 31.5061 36.4274 33.7292C36.2321 34.9702 35.9487 36.1961 35.5796 37.3975C35.2432 38.4286 34.7717 39.4112 34.1771 40.3202C34.2133 40.065 34.2495 39.8059 34.2736 39.5228C34.3098 39.1519 34.3379 38.7692 34.3499 38.3864C34.3859 37.23 34.3146 36.0728 34.137 34.9294C33.9612 33.7754 33.6801 32.6397 33.2971 31.5362C33.2087 31.281 33.1163 31.0298 33.0158 30.7826C32.9636 30.655 32.9154 30.5314 32.8631 30.4118C33.0243 30.409 33.1822 30.3663 33.3226 30.2876C33.4629 30.2089 33.5812 30.0967 33.6668 29.9612C33.8155 29.7299 33.9481 29.4907 34.0687 29.2515C34.1892 29.0122 34.3017 28.773 34.4022 28.5337C34.5026 28.2945 34.5951 28.0553 34.6754 27.816C34.7558 27.5768 34.8321 27.3376 34.9005 27.0983C34.971 26.8523 34.9407 26.5886 34.8161 26.3647C34.6936 26.1518 34.4938 25.9935 34.2575 25.9221C34.0096 25.852 33.7438 25.8821 33.5181 26.0058C33.4065 26.0672 33.3082 26.1499 33.2289 26.2491C33.1496 26.3483 33.0909 26.4621 33.056 26.584C32.9957 26.7953 32.9315 26.9827 32.8591 27.206C32.7868 27.4293 32.7145 27.6047 32.6301 27.8081C32.5457 28.0114 32.4573 28.2068 32.3608 28.3862C32.2644 28.5656 32.1921 28.7052 32.0956 28.8567C31.8309 28.3859 31.5411 27.9294 31.2277 27.4891C30.8513 26.9759 30.4391 26.4896 29.994 26.0337V26.0178ZM20.4745 38.3625C20.5015 38.4875 20.5534 38.6059 20.6273 38.7107C20.7011 38.8155 20.7954 38.9045 20.9045 38.9725C21.0129 39.0416 21.1341 39.0888 21.261 39.1114C21.3878 39.1339 21.5179 39.1315 21.6439 39.1041C21.7717 39.0793 21.8931 39.0291 22.0009 38.9564C22.1086 38.8838 22.2004 38.7902 22.2707 38.6814C22.3403 38.5738 22.3879 38.4536 22.4106 38.3277C22.4334 38.2018 22.4309 38.0727 22.4033 37.9478C22.3446 37.6873 22.2708 37.4303 22.1823 37.1782C22.089 36.906 21.9789 36.6397 21.8528 36.3808C21.7242 36.1256 21.5796 35.8664 21.4148 35.6072C21.2416 35.3395 21.0538 35.0812 20.8522 34.8337C20.6885 34.633 20.4518 34.5041 20.1932 34.4748C20.0655 34.4605 19.9361 34.4714 19.8127 34.507C19.6892 34.5426 19.5741 34.6021 19.4739 34.6822C19.2716 34.8447 19.1418 35.0795 19.1123 35.3361C19.0978 35.4629 19.1089 35.5912 19.1447 35.7137C19.1806 35.8362 19.2406 35.9505 19.3212 36.0498C19.4792 36.2542 19.6254 36.4672 19.7592 36.6878C19.8733 36.8698 19.9779 37.0574 20.0727 37.25C20.1611 37.432 20.2403 37.6183 20.3098 37.8082C20.3753 37.9897 20.4303 38.1747 20.4745 38.3625ZM15.8092 30.5752C15.8361 30.7003 15.8881 30.8187 15.9619 30.9235C16.0358 31.0282 16.13 31.1173 16.2391 31.1853C16.3476 31.2544 16.4688 31.3016 16.5956 31.3241C16.7225 31.3467 16.8526 31.3443 16.9785 31.3169C17.1045 31.2901 17.2239 31.2386 17.3295 31.1653C17.435 31.092 17.5248 30.9985 17.5933 30.8902C17.663 30.7826 17.7105 30.6624 17.7333 30.5365C17.756 30.4106 17.7535 30.2815 17.7259 30.1566C17.6672 29.8961 17.5934 29.6391 17.5049 29.387C17.4116 29.1148 17.3015 28.8485 17.1754 28.5896C17.0468 28.3344 16.9022 28.0752 16.7374 27.816C16.5642 27.5483 16.3764 27.29 16.1749 27.0425C16.0111 26.8418 15.7744 26.7129 15.5158 26.6836C15.3881 26.6693 15.2587 26.6802 15.1353 26.7158C15.0118 26.7514 14.8967 26.811 14.7966 26.891C14.5943 27.0535 14.4644 27.2883 14.4349 27.5449C14.4204 27.6717 14.4315 27.8 14.4673 27.9225C14.5032 28.045 14.5632 28.1593 14.6439 28.2586C14.8007 28.4513 14.9469 28.6523 15.0819 28.8607C15.2104 29.0601 15.3189 29.2594 15.4154 29.4389C15.5056 29.6201 15.5847 29.8065 15.6525 29.9971C15.7168 30.1925 15.769 30.3958 15.8092 30.5553V30.5752ZM10.9148 21.7274C10.9423 21.8517 10.9944 21.9694 11.0683 22.0734C11.1421 22.1775 11.2361 22.2659 11.3448 22.3335C11.4532 22.4026 11.5744 22.4497 11.7013 22.4723C11.8281 22.4949 11.9582 22.4924 12.0842 22.4651C12.2102 22.4383 12.3295 22.3868 12.4351 22.3135C12.5407 22.2402 12.6304 22.1467 12.699 22.0384C12.8413 21.8232 12.8918 21.5609 12.8396 21.3087C12.7809 21.0482 12.7071 20.7913 12.6186 20.5392C12.5252 20.267 12.4152 20.0006 12.2891 19.7417C12.1605 19.4865 12.0158 19.2274 11.8511 18.9682C11.6778 18.7004 11.49 18.4422 11.2885 18.1947C11.1248 17.9939 10.8881 17.8651 10.6295 17.8358C10.5017 17.8215 10.3724 17.8324 10.2489 17.868C10.1255 17.9036 10.0103 17.9631 9.91021 18.0431C9.70792 18.2056 9.57804 18.4405 9.54856 18.6971C9.53411 18.8238 9.54514 18.9522 9.58101 19.0747C9.61687 19.1972 9.67686 19.3114 9.75751 19.4108C9.91435 19.6035 10.0606 19.8045 10.1955 20.0129C10.3185 20.2 10.4299 20.3944 10.529 20.595C10.6192 20.7762 10.6984 20.9626 10.7661 21.1532C10.8264 21.3446 10.8827 21.5281 10.9228 21.7075L10.9148 21.7274ZM6.78392 14.319C6.81088 14.444 6.86282 14.5624 6.93667 14.6672C7.01052 14.772 7.10478 14.861 7.21389 14.9291C7.32236 14.9981 7.4435 15.0453 7.57037 15.0679C7.69725 15.0905 7.82735 15.088 7.95327 15.0606C8.07927 15.0339 8.1986 14.9824 8.3042 14.9091C8.40979 14.8358 8.49952 14.7423 8.56808 14.634C8.6377 14.5264 8.68524 14.4062 8.708 14.2803C8.73075 14.1544 8.72826 14.0253 8.70068 13.9003C8.64194 13.6398 8.56815 13.3829 8.47967 13.1308C8.38633 12.8585 8.27629 12.5922 8.15017 12.3333C8.02158 12.0781 7.87691 11.819 7.71216 11.5598C7.53892 11.292 7.35112 11.0338 7.14959 10.7862C6.98583 10.5855 6.74917 10.4566 6.49058 10.4274C6.36282 10.4131 6.23347 10.424 6.11001 10.4596C5.98655 10.4952 5.87142 10.5547 5.77129 10.6347C5.569 10.7972 5.43912 11.0321 5.40964 11.2886C5.39519 11.4154 5.40622 11.5438 5.44209 11.6663C5.47795 11.7888 5.53794 11.903 5.61859 12.0024C5.77542 12.1951 5.92164 12.3961 6.05659 12.6045C6.17812 12.7925 6.28945 12.9868 6.39012 13.1866C6.4803 13.3678 6.55947 13.5542 6.6272 13.7448C6.68901 13.9268 6.74132 14.1118 6.78392 14.2991V14.319ZM26.6146 35.0929C26.6415 35.2179 26.6935 35.3363 26.7673 35.4411C26.8412 35.5459 26.9354 35.6349 27.0445 35.7029C27.153 35.772 27.2742 35.8192 27.401 35.8418C27.5279 35.8643 27.658 35.8619 27.7839 35.8345C27.9099 35.8078 28.0293 35.7562 28.1348 35.6829C28.2404 35.6097 28.3302 35.5161 28.3987 35.4079C28.4665 35.2973 28.5114 35.1743 28.5307 35.0463C28.5501 34.9183 28.5434 34.7877 28.5112 34.6622C28.459 34.4035 28.3919 34.1479 28.3103 33.8967C28.217 33.6244 28.1069 33.3581 27.9808 33.0992C27.8522 32.844 27.7076 32.5849 27.5428 32.3257C27.3696 32.0579 27.1818 31.7997 26.9802 31.5521C26.8165 31.3514 26.5798 31.2225 26.3212 31.1933C26.1935 31.1789 26.0641 31.1899 25.9407 31.2255C25.8172 31.2611 25.7021 31.3206 25.6019 31.4006C25.3997 31.5631 25.2698 31.7979 25.2403 32.0545C25.2258 32.1813 25.2369 32.3097 25.2727 32.4322C25.3086 32.5547 25.3686 32.6689 25.4492 32.7683C25.6061 32.961 25.7523 33.162 25.8873 33.3703C26.0088 33.5584 26.1201 33.7527 26.2208 33.9525C26.311 34.1337 26.3901 34.3201 26.4579 34.5107C26.5181 34.7021 26.5744 34.8855 26.6146 35.065V35.0929ZM21.9372 27.2977C21.9632 27.4241 22.0146 27.5441 22.0885 27.6503C22.1624 27.7565 22.2572 27.8468 22.3672 27.9157C22.4756 27.9848 22.5968 28.032 22.7236 28.0546C22.8505 28.0771 22.9806 28.0747 23.1065 28.0473C23.2325 28.0205 23.3519 27.969 23.4575 27.8957C23.5631 27.8225 23.6528 27.7289 23.7213 27.6207C23.791 27.513 23.8385 27.3928 23.8613 27.2669C23.884 27.141 23.8815 27.0119 23.854 26.887C23.7952 26.6265 23.7214 26.3695 23.6329 26.1174C23.5321 25.8496 23.4168 25.5874 23.2874 25.3319C23.1588 25.0768 23.0141 24.8176 22.8494 24.5584C22.6761 24.2906 22.4883 24.0324 22.2868 23.7849C22.123 23.5841 21.8864 23.4553 21.6278 23.426C21.5 23.4117 21.3707 23.4226 21.2472 23.4582C21.1237 23.4938 21.0086 23.5533 20.9085 23.6333C20.7062 23.7958 20.5763 24.0307 20.5468 24.2873C20.5324 24.414 20.5434 24.5424 20.5793 24.6649C20.6151 24.7874 20.6751 24.9016 20.7558 25.001C20.9126 25.1937 21.0588 25.3947 21.1938 25.6031C21.3153 25.7911 21.4267 25.9854 21.5273 26.1852C21.6158 26.3672 21.6949 26.5535 21.7644 26.7434C21.8273 26.9251 21.8796 27.1101 21.9211 27.2977H21.9372ZM17.0388 18.4499C17.0658 18.5749 17.1177 18.6933 17.1915 18.7981C17.2654 18.9028 17.3597 18.9919 17.4688 19.0599C17.5772 19.129 17.6984 19.1762 17.8253 19.1987C17.9521 19.2213 18.0822 19.2189 18.2081 19.1915C18.3342 19.1647 18.4535 19.1132 18.5591 19.0399C18.6647 18.9666 18.7544 18.8731 18.823 18.7648C18.8926 18.6572 18.9401 18.537 18.9629 18.4111C18.9856 18.2852 18.9831 18.1561 18.9556 18.0312C18.8968 17.7707 18.823 17.5137 18.7346 17.2616C18.6394 16.9901 18.5294 16.7239 18.405 16.4642C18.2765 16.209 18.1318 15.9498 17.967 15.6906C17.7938 15.4229 17.606 15.1646 17.4045 14.9171C17.2407 14.7164 17.0041 14.5875 16.7455 14.5582C16.6177 14.5439 16.4884 14.5548 16.3649 14.5904C16.2414 14.626 16.1263 14.6856 16.0262 14.7656C15.8239 14.9281 15.694 15.1629 15.6645 15.4195C15.6501 15.5463 15.6611 15.6746 15.697 15.7971C15.7328 15.9196 15.7928 16.0339 15.8735 16.1332C16.0308 16.3311 16.177 16.5374 16.3115 16.7513C16.433 16.9393 16.5443 17.1336 16.645 17.3334C16.7335 17.5154 16.8126 17.7017 16.8821 17.8916C16.9439 18.0736 16.9962 18.2586 17.0388 18.4459V18.4499ZM36.0658 20.7625C35.9555 20.9189 35.8946 21.1045 35.891 21.2954C35.8875 21.4863 35.9413 21.6739 36.0456 21.8344C36.1499 21.9948 36.3001 22.1208 36.4769 22.1962C36.6537 22.2716 36.8491 22.293 37.0382 22.2577C37.1635 22.2355 37.2831 22.1888 37.39 22.1204C37.4969 22.0519 37.5891 21.9631 37.6611 21.859C37.8258 21.6198 37.9785 21.3765 38.1151 21.1293C38.2521 20.8823 38.3755 20.628 38.4848 20.3677C38.5933 20.1126 38.6858 19.8574 38.7661 19.6022C38.8465 19.347 38.9188 19.0719 38.9831 18.8047C39.0378 18.5555 38.9916 18.2948 38.8545 18.079C38.7868 17.9721 38.6983 17.8796 38.5941 17.807C38.4899 17.7344 38.3722 17.6832 38.2478 17.6564C37.9965 17.6021 37.7339 17.6479 37.5164 17.784C37.4086 17.8511 37.3154 17.939 37.2423 18.0424C37.1691 18.1458 37.1175 18.2626 37.0905 18.3861C37.0422 18.5974 36.986 18.8127 36.9177 19.024C36.8494 19.2353 36.777 19.4427 36.6926 19.6381C36.6083 19.8334 36.5118 20.0368 36.4114 20.2202C36.3054 20.4139 36.1887 20.6016 36.0618 20.7824L36.0658 20.7625ZM28.7604 19.7936C28.6202 20.0077 28.5716 20.2683 28.6251 20.5181C28.6786 20.7678 28.8299 20.9863 29.0457 21.1253C29.1525 21.1942 29.272 21.2415 29.3973 21.2645C29.5226 21.2876 29.6512 21.2859 29.7758 21.2596C30.0275 21.2065 30.2477 21.0564 30.3878 20.8422C30.5445 20.603 30.6892 20.3558 30.8218 20.1086C30.9544 19.8614 31.0709 19.6062 31.1754 19.359C31.2799 19.1117 31.3723 18.8605 31.4607 18.6014C31.5491 18.3422 31.6255 18.087 31.6938 17.8318C31.727 17.7093 31.7356 17.5815 31.7191 17.4556C31.7026 17.3298 31.6612 17.2085 31.5974 17.0985C31.5336 16.9885 31.4486 16.8921 31.3472 16.8147C31.2459 16.7374 31.1301 16.6806 31.0067 16.6476C30.8832 16.6146 30.7543 16.6061 30.6275 16.6225C30.5007 16.6389 30.3784 16.6799 30.2676 16.7432C30.1568 16.8066 30.0596 16.8909 29.9817 16.9915C29.9037 17.0921 29.8464 17.2069 29.8132 17.3294C29.7529 17.5567 29.6846 17.776 29.6163 17.9833C29.548 18.1907 29.4676 18.406 29.3792 18.6133C29.2908 18.8207 29.1984 19.0121 29.0979 19.2154C28.9975 19.4188 28.8809 19.6141 28.7604 19.7936ZM40.0118 12.6962C39.9479 12.8062 39.9068 12.9278 39.891 13.0537C39.8751 13.1797 39.8848 13.3076 39.9194 13.4298C39.9525 13.5524 40.0097 13.6672 40.0876 13.7678C40.1655 13.8683 40.2627 13.9527 40.3735 14.016C40.4843 14.0794 40.6069 14.1201 40.7338 14.1359C40.8608 14.1516 40.9897 14.142 41.1129 14.1077C41.2363 14.0748 41.3521 14.0181 41.4534 13.9408C41.5548 13.8634 41.6398 13.7671 41.7036 13.6571C41.8281 13.4418 41.9527 13.2145 42.0773 12.9713C42.2018 12.7281 42.3143 12.4928 42.4269 12.2456C42.5394 11.9984 42.6398 11.7432 42.7323 11.484C42.8247 11.2249 42.905 10.9577 42.9774 10.6866C43.0179 10.5613 43.0322 10.4291 43.0193 10.2982C43.0065 10.1673 42.9668 10.0403 42.9027 9.92514C42.8386 9.80998 42.7515 9.70903 42.6466 9.62852C42.5418 9.548 42.4214 9.48961 42.293 9.45693C42.1646 9.42426 42.0308 9.41799 41.8998 9.4385C41.7688 9.45902 41.6435 9.5059 41.5315 9.57625C41.4194 9.6466 41.3231 9.73894 41.2483 9.8476C41.1736 9.95625 41.122 10.0789 41.0968 10.2081C41.0405 10.4234 40.9722 10.6387 40.8959 10.854C40.8195 11.0693 40.7351 11.2767 40.6467 11.48C40.5583 11.6834 40.4579 11.8788 40.3534 12.0901C40.2489 12.3014 40.1324 12.4888 40.0118 12.7002V12.6962ZM32.606 11.7312C32.4911 11.9502 32.4652 12.2046 32.5335 12.442C32.6019 12.6794 32.7594 12.8817 32.9735 13.0074C33.1877 13.133 33.4423 13.1725 33.6849 13.1175C33.9274 13.0626 34.1396 12.9175 34.2776 12.7121C34.4263 12.4609 34.5709 12.2097 34.7036 11.9625C34.8362 11.7153 34.9607 11.4681 35.0692 11.2249C35.1836 10.9712 35.2842 10.7117 35.3706 10.4473C35.4552 10.1862 35.5223 9.91978 35.5715 9.64987C35.5945 9.52551 35.5925 9.39788 35.5658 9.27427C35.539 9.15066 35.488 9.03349 35.4156 8.92945C35.3432 8.8254 35.2509 8.73653 35.1439 8.66789C35.0369 8.59926 34.9173 8.55221 34.792 8.52943C34.5388 8.48343 34.2777 8.53909 34.0659 8.68415C33.9611 8.75598 33.8715 8.8476 33.8023 8.95378C33.7332 9.05995 33.6858 9.17861 33.6628 9.30297C33.6276 9.48822 33.5793 9.67077 33.5181 9.84923C33.4538 10.0406 33.3775 10.248 33.2891 10.4314C33.2007 10.6148 33.0841 10.866 32.9716 11.0773C32.8591 11.2886 32.7265 11.5119 32.6019 11.7233L32.606 11.7312ZM24.4085 18.9084C24.1132 18.2585 23.8831 17.5814 23.7213 16.8868C23.5244 16.0894 23.3918 15.2441 23.2552 14.4027C23.0973 13.2916 22.88 12.1895 22.6042 11.1012C22.2755 9.86871 21.7836 8.68482 21.1416 7.58045C20.2538 6.06426 19.1045 4.71464 17.746 3.59315C16.4177 2.4668 14.8904 1.59477 13.2414 1.02134C12.5594 0.788126 11.8573 0.61729 11.1439 0.510962C10.4661 0.406658 9.77952 0.370589 9.09448 0.403305C8.39255 0.437343 7.69685 0.551058 7.021 0.742226C6.36172 0.932527 5.72769 1.20024 5.13237 1.53969C4.13261 2.11662 3.25732 2.88352 2.5566 3.7965C1.79818 4.7964 1.21038 5.91308 0.816643 7.10198C0.740292 7.32128 0.671982 7.54457 0.603668 7.77185C0.535358 7.99912 0.479099 8.2264 0.42284 8.46165C0.366585 8.6969 0.318363 8.92019 0.274162 9.15943C0.229961 9.39867 0.193794 9.62594 0.157631 9.86119C-0.0333138 11.1825 -0.0495224 12.523 0.109409 13.8485C0.267467 15.0813 0.589043 16.2879 1.06578 17.4371C1.54322 18.5738 2.14418 19.6554 2.85798 20.6628C3.60851 21.7253 4.44007 22.729 5.34534 23.6652L5.67083 24.0042C6.32181 24.686 6.95671 25.3519 7.52732 26.0656C8.11055 26.7791 8.60065 27.5628 8.98599 28.3982C9.37607 29.281 9.68669 30.1963 9.91423 31.1335C10.1393 32.0426 10.3161 32.9357 10.4647 33.8249C10.7192 35.5363 11.1459 37.218 11.7386 38.8449C12.5429 40.8606 13.7359 42.7013 15.2506 44.2637C15.8124 44.8615 16.4167 45.4185 17.0589 45.9304C17.6835 46.4262 18.3443 46.8754 19.0359 47.2741C19.7125 47.6589 20.421 47.9857 21.1536 48.251C21.8452 48.5091 22.5596 48.7026 23.2874 48.8291C23.5646 48.877 23.8379 48.9129 24.091 48.9408C24.3442 48.9687 24.6215 48.9846 24.8947 48.9966C26.078 49.0504 27.2603 48.8729 28.3746 48.4743C29.4452 48.0812 30.4162 47.4606 31.2196 46.6561C31.478 46.4062 31.7197 46.1398 31.9429 45.8586C32.1532 45.5803 32.3491 45.2915 32.5296 44.9933L32.61 44.9455C32.6554 44.9172 32.6984 44.8852 32.7386 44.8498C34.9406 42.8841 36.1461 41.0738 36.9498 39.3194C37.7535 37.565 38.0308 35.8584 38.3563 34.0721V34.0442C38.6565 31.9738 39.2195 29.9495 40.0319 28.0194C40.4172 27.184 40.9073 26.4003 41.4906 25.6868C42.0572 24.9811 42.6961 24.3152 43.339 23.6333L43.6605 23.2944C44.5649 22.356 45.3964 21.351 46.1479 20.288C46.8603 19.2797 47.4611 18.1983 47.9401 17.0623C48.4196 15.9141 48.7413 14.707 48.8964 13.4737C49.0554 12.1482 49.0392 10.8077 48.8482 9.48639C48.6914 8.33206 48.3946 7.20077 47.9642 6.11711C47.5683 5.11401 47.0268 4.17371 46.3568 3.326C45.7352 2.53039 44.9793 1.84775 44.1226 1.30842C43.2778 0.782178 42.346 0.408263 41.37 0.203939C40.1467 -0.0453434 38.8869 -0.0629305 37.6571 0.152104C36.3232 0.381998 35.0347 0.820757 33.8396 1.45197C32.6018 2.10188 31.4627 2.92207 30.4561 3.88821C29.4431 4.86101 28.572 5.96958 27.8683 7.18172C27.2273 8.28941 26.7355 9.4758 26.4056 10.7105C26.1279 11.7983 25.9106 12.9005 25.7546 14.012C25.622 14.8573 25.4894 15.6946 25.2885 16.512C25.0969 17.3411 24.8055 18.1444 24.4205 18.9044L24.4085 18.9084ZM12.9119 11.0414C12.9389 11.1665 12.9908 11.2849 13.0647 11.3897C13.1385 11.4944 13.2328 11.5835 13.3419 11.6515C13.4504 11.7206 13.5715 11.7678 13.6984 11.7903C13.8253 11.8129 13.9554 11.8104 14.0813 11.7831C14.2073 11.7563 14.3266 11.7048 14.4322 11.6315C14.5378 11.5582 14.6275 11.4647 14.6961 11.3564C14.7657 11.2488 14.8133 11.1286 14.836 11.0027C14.8588 10.8768 14.8563 10.7477 14.8287 10.6228C14.77 10.3623 14.6962 10.1053 14.6077 9.85322C14.5119 9.58841 14.4019 9.32887 14.2782 9.07569C14.1496 8.82051 14.0049 8.56133 13.8402 8.30216C13.6669 8.03438 13.4791 7.77615 13.2776 7.52862C13.1138 7.32789 12.8772 7.19902 12.6186 7.16976C12.4908 7.15543 12.3615 7.16637 12.238 7.20196C12.1146 7.23755 11.9994 7.29708 11.8993 7.3771C11.697 7.53959 11.5671 7.77443 11.5377 8.03102C11.5232 8.15779 11.5342 8.28614 11.5701 8.40865C11.606 8.53116 11.666 8.64539 11.7466 8.74475C11.9034 8.93746 12.0497 9.13845 12.1846 9.34683C12.3132 9.5462 12.4217 9.74556 12.5181 9.92499C12.6066 10.107 12.6857 10.2933 12.7552 10.4832C12.8176 10.6663 12.8699 10.8527 12.9119 11.0414ZM25.5095 23.9962C26.0118 24.5983 26.5342 25.1924 27.0606 25.7506C27.587 26.3088 28.1014 26.8511 28.6037 27.3455C29.2224 27.9883 29.7619 28.7017 30.211 29.4708C30.7097 30.3175 31.1229 31.211 31.4447 32.1383C31.7882 33.1305 32.041 34.1514 32.2001 35.1886C32.3604 36.2212 32.4237 37.2664 32.389 38.3106C32.389 38.6495 32.3568 38.9845 32.3207 39.3154C32.2845 39.6464 32.2443 39.9693 32.1881 40.2883C32.0317 41.2795 31.7411 42.2452 31.3241 43.1592C30.9591 43.954 30.4558 44.6788 29.8373 45.3004C29.2243 45.9025 28.4866 46.3651 27.6754 46.6561C26.8093 46.9592 25.8926 47.0945 24.9751 47.0548C24.7581 47.0548 24.5371 47.0309 24.312 47.0109C24.087 46.991 23.866 46.9591 23.637 46.9192C23.0175 46.8141 22.4093 46.6512 21.8207 46.4328C21.1994 46.2038 20.5986 45.9237 20.0244 45.5954C19.4166 45.2421 18.8376 44.8421 18.2925 44.3992C17.7219 43.9463 17.1847 43.4532 16.6852 42.9239C15.3286 41.5262 14.2623 39.8774 13.5468 38.0714C13.012 36.5879 12.6243 35.0562 12.3895 33.4979C12.2168 32.553 12.044 31.604 11.8029 30.639C11.55 29.6088 11.2058 28.6027 10.7742 27.6326C10.3371 26.6699 9.77948 25.7656 9.11457 24.9412C8.48771 24.1437 7.79655 23.426 7.10539 22.6884L6.78794 22.3534C5.95919 21.494 5.19626 20.5743 4.5055 19.6022C3.86552 18.7022 3.32655 17.7355 2.89816 16.7194C2.49193 15.7255 2.22163 14.6822 2.09448 13.6172C1.95522 12.4587 1.97008 11.287 2.13869 10.1323C2.16681 9.92898 2.20298 9.7336 2.23915 9.51829C2.27531 9.30297 2.31951 9.11955 2.36773 8.90823C2.41595 8.6969 2.46819 8.5095 2.52445 8.31412C2.58071 8.12672 2.64098 7.91539 2.70929 7.73197C3.03072 6.7561 3.50831 5.83792 4.12376 5.01263C4.66364 4.28028 5.34533 3.66214 6.12893 3.19442C6.59019 2.93284 7.08121 2.7267 7.59161 2.58037C8.11552 2.43206 8.65481 2.34377 9.19896 2.31721C9.76307 2.29121 10.3284 2.32059 10.8867 2.40493C11.4782 2.49614 12.0604 2.63891 12.6266 2.83157C14.0437 3.31988 15.3572 4.06482 16.5003 5.02858C17.6786 6.01022 18.6753 7.18816 19.4458 8.5095C20.0131 9.49414 20.4455 10.5494 20.7317 11.6475C20.9837 12.6452 21.1822 13.6554 21.3264 14.6739C21.4711 15.5989 21.6157 16.504 21.8408 17.4052C22.0671 18.3532 22.4057 19.2713 22.8494 20.1405C23.208 20.8196 23.6107 21.4749 24.0549 22.1022C24.5009 22.7482 24.9912 23.3782 25.5015 23.9882L25.5095 23.9962Z" fill="black"/>
</g>
<defs>
<clipPath id="clip0_449:157">
<rect width="49" height="49" fill="white" transform="matrix(-1 0 0 1 49 0)"/>
</clipPath>
</defs>
</svg>
