<svg width="33" height="49" viewBox="0 0 33 49" fill="none" xmlns="http://www.w3.org/2000/svg">
<path fill-rule="evenodd" clip-rule="evenodd" d="M26.5791 11.9855C29.3459 12.2022 30.6368 11.6031 31.2802 7.25669C28.7446 7.93648 26.0703 8.07244 26.5791 11.9855ZM13.1445 38.5185C16.1426 37.6432 17.2737 36.4961 16.2561 31.6611C13.8467 33.3903 11.0883 34.5799 13.1445 38.5185ZM11.2481 33.42C14.2462 32.5448 15.3773 31.3977 14.3597 26.5627C11.9503 28.2919 9.1961 29.4773 11.2481 33.42ZM9.38532 28.3811C12.0512 27.6036 13.0562 26.5839 12.1521 22.2843C10.0076 23.8223 7.56881 24.876 9.38532 28.3811ZM7.72439 23.92C10.0917 23.2317 10.9832 22.3225 10.18 18.5072C8.27943 19.8753 6.1055 20.8185 7.72439 23.92ZM6.25688 19.9687C8.46024 19.3272 9.29281 18.4817 8.54434 14.9256C6.77408 16.2002 4.75994 17.0499 6.25688 19.9687ZM4.33524 17.0329C1.81231 16.4041 0.79052 14.5729 2.07301 10.9615C3.44801 11.6031 6.64794 13.7487 4.33524 17.0329ZM11.8536 39.0071C9.0237 40.3369 7.42584 40.2179 5.04587 35.8928C7.9893 35.6039 10.8402 34.6692 11.8494 39.0071H11.8536ZM9.95719 33.9086C7.14832 35.2172 5.52943 35.0983 3.15367 30.7731C6.09709 30.4842 8.94801 29.5495 9.95719 33.8874V33.9086ZM8.10703 28.8825C5.5841 30.0636 4.17125 29.9616 2.0604 26.1166C4.67584 25.8574 7.21139 25.0289 8.10703 28.8825ZM6.46292 24.4213C4.23012 25.4495 2.96865 25.3561 1.09327 21.9444C3.41437 21.7107 5.6682 20.9757 6.46292 24.4001V24.4213ZM4.99962 20.4361C2.9182 21.4133 1.74503 21.3241 0 18.1461C2.16131 17.9336 4.25956 17.2496 4.99962 20.4361ZM24.9855 38.0171C24.9855 37.9105 25.0062 37.805 25.0466 37.7066C25.087 37.6081 25.1461 37.5187 25.2207 37.4433C25.2953 37.3679 25.3838 37.3082 25.4813 37.2674C25.5787 37.2266 25.6831 37.2056 25.7886 37.2056C25.8941 37.2056 25.9985 37.2266 26.096 37.2674C26.1934 37.3082 26.2819 37.3679 26.3565 37.4433C26.4311 37.5187 26.4902 37.6081 26.5306 37.7066C26.571 37.805 26.5917 37.9105 26.5917 38.0171V47.9505C26.5917 48.0571 26.571 48.1626 26.5306 48.2611C26.4902 48.3595 26.4311 48.449 26.3565 48.5243C26.2819 48.5997 26.1934 48.6595 26.096 48.7002C25.9985 48.741 25.8941 48.762 25.7886 48.762C25.6831 48.762 25.5787 48.741 25.4813 48.7002C25.3838 48.6595 25.2953 48.5997 25.2207 48.5243C25.1461 48.449 25.087 48.3595 25.0466 48.2611C25.0062 48.1626 24.9855 48.0571 24.9855 47.9505V38.0171ZM12.7408 41.3353C12.6605 41.1359 12.6619 40.9124 12.7447 40.714C12.8275 40.5156 12.9849 40.3585 13.1823 40.2774C13.3797 40.1963 13.6009 40.1977 13.7973 40.2814C13.9936 40.365 14.1491 40.5241 14.2294 40.7235C14.5531 41.5308 14.919 42.3125 15.2848 43.0943C16.0806 44.664 16.7174 46.3109 17.1854 48.01C17.2234 48.2147 17.1821 48.4262 17.0701 48.601C16.958 48.7758 16.7838 48.9003 16.5834 48.9489C16.383 48.9975 16.1718 48.9663 15.9935 48.862C15.8152 48.7576 15.6834 48.5879 15.6254 48.3881C15.1796 46.7999 14.5796 45.2601 13.8341 43.7911C13.4515 42.9796 13.073 42.1638 12.7408 41.3438V41.3353ZM24.935 35.9438C21.1506 36.2369 19.414 35.4212 18.5394 29.5113C21.9958 30.4375 25.612 30.5904 24.9392 35.9438H24.935ZM24.935 29.3328C21.1506 29.626 19.414 28.8102 18.5394 22.9003C21.9958 23.8308 25.612 23.9965 24.9392 29.3158L24.935 29.3328ZM24.935 22.8578C21.5711 23.1213 20.0237 22.3947 19.2458 17.1391C22.3154 17.9634 25.5531 18.1078 24.935 22.8578ZM24.935 17.0966C21.9664 17.3303 20.5787 16.6718 19.8891 11.9982C22.6139 12.7332 25.469 12.848 24.935 17.0966ZM24.935 11.9982C22.1682 12.2149 20.8773 11.6158 20.2339 7.26944C22.7569 7.94922 25.4312 8.07244 24.935 11.9982ZM25.8769 7.8515C28.4881 6.05431 28.8582 3.54759 25.8769 0.0126953C24.5902 1.32129 21.8654 5.11111 25.8769 7.8515ZM26.6044 35.9438C30.3677 36.2369 32.1254 35.4212 33 29.5113C29.5478 30.4375 25.9274 30.5904 26.6044 35.9438ZM26.6044 29.3328C30.3677 29.626 32.1254 28.8102 33 22.9003C29.5478 23.8308 25.9274 23.9965 26.6044 29.3158V29.3328ZM26.6044 22.8578C29.9683 23.1213 31.5157 22.3947 32.2936 17.1391C29.224 17.9634 26.0073 18.1078 26.6044 22.8578ZM26.6044 17.0966C29.573 17.3303 30.9606 16.6718 31.6502 11.9982C28.9255 12.7332 26.0703 12.848 26.6044 17.0966Z" fill="black"/>
</svg>
