<svg width="34" height="49" viewBox="0 0 34 49" fill="none" xmlns="http://www.w3.org/2000/svg">
<g clip-path="url(#clip0_449:159)">
<path fill-rule="evenodd" clip-rule="evenodd" d="M0.863212 48.7488C0.630994 48.7435 0.410175 48.6469 0.248558 48.4797C0.0869414 48.3125 -0.00246921 48.0882 -0.000317927 47.8555V15.3536C-0.00446837 15.1366 0.067335 14.925 0.202632 14.7554L4.37702 7.49337V0.925206C4.36823 0.692843 4.45019 0.4662 4.60549 0.293436C4.76079 0.120672 4.9772 0.015404 5.20872 0L28.4007 0C28.6049 0.0055937 28.8006 0.0835968 28.9529 0.220142C29.1052 0.356687 29.2042 0.542925 29.2324 0.745748L29.6741 7.97591L33.9997 15.6128L33.8684 48.8445C25.0699 49.2433 11.8941 48.7488 0.863212 48.7488ZM13.2471 20.8969C14.0908 20.8969 14.9156 21.1476 15.6171 21.6174C16.3186 22.0871 16.8654 22.7548 17.1883 23.536C17.5112 24.3171 17.5957 25.1767 17.4311 26.006C17.2665 26.8353 16.8602 27.597 16.2636 28.1949C15.667 28.7928 14.9069 29.2 14.0793 29.3649C13.2518 29.5299 12.3941 29.4452 11.6146 29.1216C10.8351 28.7981 10.1689 28.2501 9.70013 27.5471C9.23138 26.844 8.98119 26.0175 8.98119 25.172C8.98119 24.0381 9.43063 22.9508 10.2306 22.149C11.0307 21.3473 12.1157 20.8969 13.2471 20.8969ZM10.3461 39.9115H8.86977L8.82599 38.2525L8.75436 36.8726H8.6509L7.77145 39.397H6.49804L5.76981 36.8726H5.65043L5.53105 38.0929L5.44748 39.9115H4.03479L4.56803 34.432H6.51794L6.6811 35.2296L7.1626 37.2236H7.26209L7.79533 35.2934L7.99032 34.4519H9.91635L10.3461 39.9115ZM12.7576 38.1328L12.8253 39.9115H11.142L11.2256 38.3163L11.142 34.432H12.8651L12.7736 38.1328H12.7576ZM17.2106 38.6433L17.1111 39.9115H13.856L13.9395 38.3163L13.856 34.444H15.579L15.4835 38.1448L15.5034 38.5436H17.0952L17.1907 38.6632L17.2106 38.6433ZM20.9035 37.0242C21.4208 37.8377 22.0137 38.6818 22.6823 39.5565L22.6544 39.744C22.0979 39.8683 21.5345 39.9588 20.9671 40.0151L20.7801 39.9115C20.2031 38.9264 19.7335 38.085 19.3674 37.399V38.1328L19.4351 39.9115H17.716L17.7995 38.3163L17.716 34.444H19.4391L19.3794 36.7331L20.4299 35.0382L20.7164 34.444H22.5072L20.9154 37.0361L20.9035 37.0242ZM8.75436 6.35281H10.6008V8.23513H8.75436V6.35281ZM12.3597 6.35281H14.2022V8.23513H12.3557V6.35281H12.3597ZM15.9412 6.35281H19.8489V8.23513H15.9451V6.35281H15.9412ZM27.5451 1.84244H6.05633V6.35281H7.07108V8.23513H5.96878C4.77496 10.2969 3.63685 12.3986 2.48283 14.4763H23.9716L27.4575 8.2431H22.4594V6.35281L27.5013 6.3249C27.5013 4.81745 27.5013 3.33792 27.5332 1.84244H27.5451ZM28.9538 9.1723L26.216 14.4763H31.8826L28.9538 9.1723ZM25.9374 16.3107V46.8983H31.9543L31.8986 16.3107H25.9374ZM1.69093 16.3107V46.8983H24.3098V16.3227L1.69093 16.3107Z" fill="black"/>
</g>
<defs>
<clipPath id="clip0_449:159">
<rect width="34" height="49" fill="white"/>
</clipPath>
</defs>
</svg>
